<!-- chauffeur by Ed Piel from the Noun Project: https://thenounproject.com/term/chauffeur/239487 -->
<svg xmlns="http://www.w3.org/2000/svg" xmlns:xlink="http://www.w3.org/1999/xlink" version="1.1" x="0px" y="0px" viewBox="0 0 100 125"
    enable-background="new 0 0 100 100" xml:space="preserve">
    <circle cx="50" cy="60" r="50" fill="#00BEC1" />
    <path fill="none" d="M72.056,71.792c-0.036,0-0.068,0.009-0.105,0.014c1.69,1.166,3.289,2.462,4.786,3.872  C76.318,73.468,74.385,71.792,72.056,71.792z"
    />
    <path fill="none" d="M24.417,74.033c0.841-0.703,1.709-1.369,2.604-1.998C25.933,72.38,25.014,73.087,24.417,74.033z" />
    <g fill="white">
        <path d="M39.79,27.715c-2.037,2.317-3.284,5.348-3.284,8.676c0,7.265,5.889,13.152,13.155,13.152   c7.267,0,13.159-5.888,13.159-13.152c0-3.103-1.082-5.947-2.88-8.196c0.724-1.476,1.167-3.11,1.167-4.863l4.441-6.665H34.439   l4.446,6.665C38.885,24.889,39.211,26.369,39.79,27.715z M42.656,31.612c1.959,1.739,4.513,2.829,7.34,2.829   c2.616,0,4.99-0.941,6.887-2.455c0.79,1.288,1.27,2.787,1.27,4.404c0,4.68-3.81,8.486-8.492,8.486c-4.68,0-8.488-3.807-8.488-8.486   C41.172,34.619,41.721,32.975,42.656,31.612z"
        />
        <path d="M80.296,79.467c0.321-0.914,0.528-1.879,0.528-2.903c0-4.841-3.923-8.772-8.769-8.772c-0.668,0-1.312,0.099-1.934,0.246   v-9.726l-11.693-2.926l-1.672,10.04c-1.595-0.294-3.228-0.469-4.876-0.572l-1.929-3.857l2.827-5.647h-5.847l2.825,5.647   l-1.917,3.837c-1.787,0.092-3.555,0.273-5.28,0.593l-1.672-10.04l-11.694,2.926v9.53c-0.248-0.023-0.494-0.051-0.749-0.051   c-4.846,0-8.773,3.932-8.773,8.772c0,0.648,0.083,1.277,0.216,1.884c-2.985,3.39-5.457,7.275-7.248,11.542h11.791   c1.02-1.694,2.218-3.247,3.509-4.712c0.17,0.009,0.331,0.05,0.505,0.05c4.244,0,7.781-3.013,8.594-7.014   c1.626-0.804,3.302-1.506,5.075-1.993c2.416-0.666,4.933-1.057,7.542-1.057c2.609,0,5.131,0.391,7.542,1.057   c2.283,0.625,4.441,1.553,6.477,2.691c1.001,3.422,4.01,5.953,7.684,6.247c1.296,1.47,2.504,3.031,3.523,4.73H86.68   C85.063,86.146,82.891,82.613,80.296,79.467z M23.673,76.563c0-0.932,0.28-1.796,0.744-2.53c0.597-0.946,1.516-1.653,2.604-1.998   c0.45-0.143,0.923-0.243,1.424-0.243c2.627,0,4.768,2.14,4.768,4.771c0,2.628-2.141,4.764-4.768,4.764   C25.813,81.327,23.673,79.191,23.673,76.563z M72.056,81.327c-2.632,0-4.772-2.136-4.772-4.764c0-2.595,2.086-4.703,4.667-4.758   c0.037-0.005,0.069-0.014,0.105-0.014c2.329,0,4.263,1.676,4.681,3.886c0.055,0.289,0.087,0.583,0.087,0.886   C76.823,79.191,74.688,81.327,72.056,81.327z"
        />
    </g>
</svg>